<?xml version="1.0" encoding="UTF-8"?><svg id="Layer_2" xmlns="http://www.w3.org/2000/svg" viewBox="0 0 514.27 215.31"><defs><style>.cls-1{opacity:.1;}.cls-2{fill:#ff7210;}.cls-3{fill:#39397f;}.cls-4{fill:#7a5dff;}</style></defs><g id="Layer_1-2"><g><g><path class="cls-3" d="M151.28,56.66c.06,0,7.33-.02,16.15-.02,0,20.57,0,57.97,.02,58.16h14.91c-.02-.17-.02-37.6-.02-58.17,8.86,0,16.17,0,16.17,0v-14.91s-47.05,0-47.23,.03v14.91Z"/><path class="cls-3" d="M214.87,41.72c-5.47,0-9.54,4.08-9.54,9.54s4.07,9.54,9.54,9.54,9.54-4.08,9.54-9.54-4.08-9.54-9.54-9.54Z"/><rect class="cls-3" x="207.42" y="65.27" width="14.91" height="49.53"/><path class="cls-3" d="M252.99,78.61c4.76,0,8.48,2.48,10.1,6.38h14.48c-2-11.62-11.53-19.71-24.57-19.71-14.86,0-25.33,10.48-25.33,24.76s10.48,24.76,25.33,24.76c13.05,0,22.57-8.09,24.57-19.72h-14.48c-1.62,3.91-5.33,6.38-10.1,6.38-6.48,0-10.86-4.67-10.86-11.43s4.38-11.43,10.86-11.43Z"/><polygon class="cls-3" points="332.96 65.4 314.36 65.4 298.66 86.2 298.66 43.8 283.67 43.8 283.67 114.8 298.66 114.8 298.66 93.5 314.77 114.8 333.76 114.8 312.86 89.6 332.96 65.4"/><path class="cls-3" d="M359.39,65.27c-14.86,0-25.33,10.48-25.33,24.76s10.48,24.76,25.33,24.76c11.71,0,20.67-6.48,23.71-16.19h-14.76c-1.81,2.57-4.86,3.43-8.95,3.43-5.14,0-9.33-2.48-10.48-8h35.52v-4c0-14.29-10.19-24.76-25.05-24.76Zm-10.19,19.71c1.43-4.76,5.24-6.95,10.19-6.95s8.76,2.09,10.38,6.95h-20.57Z"/><path class="cls-3" d="M416.65,94.39c0,5.1-2.36,6.67-5.59,6.67s-5.59-1.57-5.59-6.67v-16.09h22.96v-13.25h-22.96v-17.17h-14.72v46.51c0,13.84,8.24,20.41,20.31,20.41s20.31-6.57,20.31-20.41v-1.47h-14.72v1.47Z"/><path class="cls-3" d="M460.64,84.7c-4.38-.67-7.81-1.05-7.81-3.91,0-1.91,1.43-3.71,4.95-3.71,2.86,0,4.76,1.24,5.14,3.43h13.91c-.29-8.48-7.52-15.24-19.24-15.24s-19.24,6.67-19.24,16.19c0,11.33,10.67,12.95,17.14,13.91,4.38,.67,7.81,.95,7.81,4.1,0,2-1.43,3.52-5.81,3.52-3.9,0-5.71-1.24-5.81-3.71h-14.1c.19,9.05,8,15.52,20.1,15.52s20.1-6.48,20.1-16.19c0-11.14-10.38-12.95-17.14-13.9Z"/><g><path class="cls-4" d="M439.81,143.95c-2.69,0-5.18,.32-7.47,.94v-.94h-14.21v49.53h14.65v-27.45c0-6.45,2.93-8.4,7.03-8.4s7.03,1.95,7.03,8.4v.39h14.65v-.29c-.1-15.24-8.79-22.17-21.68-22.17Z"/><path class="cls-4" d="M237.44,120.4c-5.47,0-9.54,4.08-9.54,9.54s4.07,9.54,9.54,9.54,9.54-4.08,9.54-9.54-4.08-9.54-9.54-9.54Z"/><rect class="cls-4" x="229.99" y="143.95" width="14.91" height="49.53"/><path class="cls-4" d="M274.17,143.95c-14.26,0-23.84,8.3-23.84,24.52v25.01h14.65v-25.01c0-7.62,3.71-10.84,9.18-10.84s9.18,3.22,9.18,10.84v25.01h14.65v-25.01c0-16.31-9.57-24.52-23.84-24.52Z"/><path class="cls-4" d="M310.85,120.58c-5.47,0-9.54,4.08-9.54,9.54s4.07,9.54,9.54,9.54,9.54-4.08,9.54-9.54-4.08-9.54-9.54-9.54Z"/><rect class="cls-4" x="303.36" y="144.14" width="14.98" height="49.34"/><path class="cls-4" d="M347.31,163.38c-4.38-.67-7.81-1.05-7.81-3.91,0-1.91,1.43-3.71,4.95-3.71,2.86,0,4.76,1.24,5.14,3.43h13.91c-.29-8.48-7.52-15.24-19.24-15.24s-19.24,6.67-19.24,16.19c0,11.33,10.67,12.95,17.14,13.91,4.38,.67,7.81,.95,7.81,4.1,0,2-1.43,3.52-5.81,3.52-3.9,0-5.71-1.24-5.81-3.71h-14.1c.19,9.05,8,15.52,20.1,15.52s20.1-6.48,20.1-16.19c0-11.14-10.38-12.95-17.14-13.9Z"/><path class="cls-4" d="M396.58,173.07c0,5.1-2.36,6.67-5.59,6.67s-5.59-1.57-5.59-6.67v-16.09h22.96v-13.25h-22.96v-17.17h-14.72v46.51c0,13.84,8.24,20.41,20.31,20.41s20.31-6.57,20.31-20.41v-1.47h-14.72v1.47Z"/><path class="cls-4" d="M499.37,168.6c0,7.55-3.98,11.03-9.34,11.03s-9.34-3.28-9.34-11.03v-24.65h-14.91v24.65c0,17.99,11.03,24.95,21.37,24.95,5.17,0,9.44-2.29,12.23-6.56v4.87c0,7.45-2.88,10.54-9.44,10.54-4.77,0-7.35-1.29-8.85-4.57h-14.91c2.48,12.13,12.12,17.49,23.75,17.49,13.42,0,24.35-6.86,24.35-23.95v-47.41h-14.91v24.65Z"/><polygon class="cls-4" points="209.77 124.21 209.77 124.21 187.99 160.97 187.88 161.16 187.77 160.97 166.01 124.22 166.01 124.22 166 124.22 166 124.21 165.99 124.22 151.28 124.22 151.28 193.48 166.01 193.48 166.01 153.34 183.54 183.23 186.47 183.23 189.3 183.23 192.23 183.23 209.77 153.3 209.77 167.98 209.77 177.77 209.77 193.48 224.48 193.48 224.48 124.21 209.77 124.21 209.77 124.21"/></g></g><g><g><path class="cls-2" d="M83.48,94.77H14.46c-1.64,0-2.94,1.33-2.94,2.96v114.56c0,1.64,1.3,2.94,2.94,2.94h14.38c1.48,0,2.71-1.06,2.91-2.52,1.22-8.4,8.48-14.85,17.22-14.85s15.99,6.45,17.22,14.85c.21,1.46,1.45,2.52,2.91,2.52h14.38c1.61,0,2.94-1.3,2.94-2.94V97.74c0-1.64-1.33-2.96-2.94-2.96Zm-19.47,10.31c0-.05,0-.11,.01-.15v-.19c0-.34,.15-.62,.39-.83,.18-.13,.39-.21,.62-.21h11.76c.31,0,.59,.13,.78,.36,.16,.18,.26,.42,.26,.68v.59s0,.03,0,.05v.3c0,.43-.26,.8-.63,.95-.12,.05-.26,.08-.4,.08h-11.76c-.28,0-.54-.12-.73-.3-.19-.19-.3-.44-.3-.73v-.6Zm-21.96-.35c0-.29,.13-.55,.31-.73,.18-.18,.44-.31,.73-.31h11.75c.18,0,.34,.05,.49,.13,.31,.16,.55,.52,.55,.91v.59c0,.05,0,.11,0,.15v.2c0,.43-.26,.8-.63,.95-.12,.05-.26,.08-.4,.08h-11.75c-.28,0-.54-.12-.73-.3-.19-.19-.3-.44-.3-.73v-.24s0-.07,0-.11v-.59Zm-21.95,0c0-.34,.16-.65,.42-.83,.16-.13,.36-.21,.6-.21h11.75c.16,0,.29,.02,.42,.08,.36,.16,.62,.52,.62,.96v.27s0,.05,0,.08v.6c0,.38-.21,.71-.51,.89-.15,.09-.33,.14-.52,.14h-11.75c-.17,0-.33-.04-.47-.11-.33-.17-.56-.52-.56-.92v-.95Z"/><g class="cls-1"><path d="M11.51,108.49H86.43v79.69c-22.27-.42-42.38-9.62-57.03-24.28-.08-.08-.15-.15-.23-.23-7.09-7.15-12.18-15.9-15.02-25.39-1.74-5.82-2.64-11.92-2.64-18.1v-11.7Z"/></g><path class="cls-4" d="M128.53,126.97c1.45-.21,2.52-1.46,2.52-2.91v-14.38c0-1.64-1.33-2.96-2.94-2.96h-38.72c-1.64,0-2.96-1.3-2.96-2.94V62.34c0-1.61-1.33-2.94-2.94-2.94h-14.38c-1.48,0-2.71,1.07-2.91,2.52-1.22,8.4-8.48,14.85-17.22,14.85s-15.99-6.45-17.22-14.85c-.21-1.45-1.43-2.52-2.91-2.52H14.46c-1.61,0-2.94,1.33-2.94,2.94v44.37c0,.59,0,1.19,.03,1.77h0c.23,10.1,2.47,19.72,6.29,28.43,4.08,9.23,9.96,17.5,17.19,24.32,13.42,12.66,31.49,20.42,51.39,20.42h41.69c1.61,0,2.94-1.33,2.94-2.96v-14.36c0-1.48-1.07-2.71-2.52-2.94-8.4-1.22-14.85-8.45-14.85-17.19s6.45-15.99,14.85-17.22Zm-64.11-22.71c.18-.13,.39-.21,.63-.21h11.76c.31,0,.59,.13,.78,.36,.16,.18,.25,.42,.25,.68v.6c0,.43-.26,.8-.63,.95-.12,.05-.26,.08-.4,.08h-11.76c-.28,0-.54-.12-.73-.3-.19-.19-.3-.44-.3-.73v-.6c0-.05,0-.11,.01-.15,.04-.27,.18-.51,.39-.67Zm-22.36,.82c0-.29,.12-.54,.3-.73,.19-.19,.45-.3,.73-.3h11.75c.18,0,.35,.04,.49,.12,.33,.17,.55,.52,.55,.91v.6c0,.43-.26,.8-.63,.95-.12,.05-.26,.08-.4,.08h-11.75c-.28,0-.54-.12-.73-.3-.19-.19-.3-.44-.3-.73v-.6Zm-21.54-.83c.17-.13,.39-.21,.62-.21h11.75c.14,0,.28,.03,.4,.08,.35,.14,.59,.48,.62,.87,0,.02,0,.05,0,.08v.6c0,.38-.21,.71-.51,.89-.15,.09-.33,.14-.52,.14h-11.75c-.17,0-.33-.04-.47-.11-.33-.17-.56-.52-.56-.92v-.6c0-.34,.16-.64,.41-.83Z"/></g><path class="cls-4" d="M97.03,46.77L51.18,.92c-1.22-1.22-3.2-1.22-4.42,0L.91,46.77c-1.95,1.98-.57,5.33,2.21,5.33H94.82c2.78,0,4.16-3.35,2.21-5.33Zm-48.06-10.66c-4.34,0-7.88-3.54-7.88-7.88s3.54-7.91,7.88-7.91,7.88,3.54,7.88,7.91-3.54,7.88-7.88,7.88Z"/></g></g></g></svg>