<?xml version="1.0" standalone="no"?>
<!DOCTYPE svg PUBLIC "-//W3C//DTD SVG 20010904//EN"
 "http://www.w3.org/TR/2001/REC-SVG-20010904/DTD/svg10.dtd">
<svg version="1.0" xmlns="http://www.w3.org/2000/svg"
 width="3169.000000pt" height="564.000000pt" viewBox="0 0 3169.000000 564.000000"
 preserveAspectRatio="xMidYMid meet">

<g transform="translate(0.000000,564.000000) scale(0.100000,-0.100000)"
fill="#000000" stroke="none">
<path d="M3265 5321 c-245 -80 -329 -111 -326 -122 19 -77 22 -161 8 -231 -39
-193 -164 -338 -344 -399 -88 -30 -231 -33 -313 -5 -135 45 -240 133 -303 254
-21 40 -41 72 -45 72 -9 0 -666 -212 -671 -217 -3 -2 5 -36 18 -76 20 -63
1080 -3339 1197 -3700 25 -75 49 -135 54 -132 5 3 154 53 332 110 177 57 327
106 333 109 9 3 9 20 -2 68 -35 161 36 366 166 479 62 54 171 105 255 120 224
38 454 -81 551 -287 16 -33 32 -54 40 -52 62 14 665 215 665 221 0 7 -1013
3138 -1206 3730 -31 93 -60 167 -67 167 -7 -1 -160 -49 -342 -109z m287 -130
c13 -43 16 -67 9 -74 -17 -17 -37 -1 -50 42 -6 23 -13 41 -14 41 -1 0 -23 -7
-49 -14 -47 -15 -58 -10 -58 24 0 10 119 51 134 46 5 -1 17 -30 28 -65z m-317
-56 c0 -14 -12 -23 -47 -34 l-48 -15 0 -53 c0 -50 -1 -53 -25 -53 -26 0 -26 1
-23 72 l3 72 55 17 c67 21 85 20 85 -6z m448 -347 c20 -61 34 -115 31 -120 -3
-4 -13 -8 -22 -8 -14 0 -26 25 -51 103 -19 56 -36 107 -38 114 -4 9 7 16 38
22 3 0 22 -49 42 -111z m-629 -14 c25 -10 20 -27 -34 -107 -62 -93 -70 -99
-93 -82 -18 13 -16 16 23 66 23 29 50 70 61 91 21 41 20 41 43 32z m-1112
-177 c-14 -15 -18 -16 -27 -5 -5 8 -21 29 -35 46 l-26 32 -48 -16 c-41 -14
-50 -14 -57 -3 -15 24 -5 32 61 54 l64 21 42 -55 c38 -52 40 -57 26 -74z
m-354 6 c2 -16 -6 -23 -42 -33 -49 -13 -50 -18 -24 -89 10 -27 10 -28 -17 -33
-16 -2 -24 8 -42 57 -12 33 -22 65 -22 71 -1 10 116 54 134 50 6 -2 11 -12 13
-23z m604 -147 c31 -14 72 -28 92 -31 41 -8 49 -16 40 -40 -9 -22 -53 -14
-151 27 -65 27 -72 32 -63 49 13 24 16 24 82 -5z m565 -2 c3 -9 0 -20 -8 -25
-28 -18 -123 -50 -165 -56 -40 -5 -44 -4 -44 15 0 17 9 24 43 32 23 6 62 19
87 29 57 24 79 25 87 5z m1071 -112 c34 -102 36 -132 8 -132 -9 0 -27 38 -51
111 -31 91 -35 113 -24 120 8 5 18 7 23 6 6 -2 25 -49 44 -105z m-2189 -219
c37 -119 37 -119 11 -126 -17 -4 -24 9 -55 102 -19 58 -35 111 -35 118 0 13
31 23 41 14 4 -3 21 -52 38 -108z m2336 -234 c31 -91 35 -113 24 -120 -8 -5
-19 -9 -24 -9 -16 0 -85 228 -71 234 28 11 37 -1 71 -105z m-2193 -211 c21
-61 35 -115 32 -120 -3 -4 -13 -8 -22 -8 -13 0 -26 27 -54 110 -33 100 -35
111 -20 120 10 5 19 10 22 10 3 0 22 -50 42 -112z m2340 -240 c36 -116 36
-123 -4 -127 -10 -1 -79 219 -72 230 3 5 13 9 23 9 14 0 25 -25 53 -112z
m-2191 -216 c36 -108 37 -111 17 -118 -11 -3 -23 -2 -27 3 -4 4 -22 55 -40
112 -27 84 -31 105 -20 112 8 5 18 7 23 6 5 -2 26 -53 47 -115z m2337 -236
c18 -59 32 -109 30 -111 -2 -2 -12 -5 -22 -7 -16 -2 -25 15 -56 109 -21 61
-35 114 -32 118 3 3 15 5 26 3 16 -2 27 -25 54 -112z m-2193 -206 c20 -60 34
-114 30 -120 -3 -5 -14 -10 -24 -10 -13 0 -25 25 -53 115 -36 118 -36 117 4
124 3 0 23 -48 43 -109z m2337 -240 c36 -108 36 -110 16 -121 -11 -6 -21 -9
-22 -7 -11 12 -74 222 -70 229 3 5 13 9 22 9 13 0 26 -27 54 -110z m-2190
-214 c35 -116 35 -126 -2 -126 -5 0 -25 50 -45 112 -36 111 -36 127 1 128 5 0
26 -52 46 -114z m2334 -231 c21 -63 36 -116 34 -119 -3 -2 -13 -6 -24 -8 -15
-2 -24 14 -52 102 -39 122 -40 127 -16 133 9 3 18 5 19 6 1 0 19 -51 39 -114z
m-2189 -219 c28 -88 32 -110 21 -117 -7 -5 -17 -7 -22 -6 -14 5 -79 205 -72
223 15 39 39 6 73 -100z m1243 -66 c0 -14 -11 -22 -42 -30 -24 -6 -69 -20
-100 -31 -56 -21 -78 -19 -78 5 0 15 32 31 110 57 76 25 110 25 110 -1z m311
0 c35 -11 79 -28 97 -38 29 -16 31 -20 19 -36 -13 -17 -16 -17 -73 7 -32 14
-76 28 -97 32 -42 8 -50 16 -41 39 8 21 19 20 95 -4z m768 -121 c12 -39 21
-72 19 -73 -12 -10 -132 -45 -139 -40 -5 3 -9 14 -9 24 0 15 11 23 45 31 25 6
45 15 45 19 0 4 -7 27 -15 50 -8 23 -15 44 -15 46 0 2 19 8 41 13 3 0 15 -31
28 -70z m-1460 -73 c10 -12 4 -25 -29 -67 -23 -29 -50 -70 -61 -91 -21 -40
-25 -43 -49 -28 -12 8 -12 13 2 42 21 43 105 158 117 158 5 0 14 -6 20 -14z
m1048 -62 c18 -24 18 -24 67 -8 41 14 50 14 57 3 5 -8 7 -18 6 -23 -3 -10 -92
-44 -118 -45 -9 -1 -35 23 -57 53 -38 50 -39 54 -24 70 18 18 21 17 69 -50z
m-1764 -126 c20 -61 35 -113 34 -114 -1 -1 -11 -4 -22 -8 -19 -5 -24 5 -57
106 -21 61 -35 115 -32 120 3 4 13 8 22 8 13 0 27 -27 55 -112z m547 -278 l0
-68 -66 -22 c-46 -16 -69 -19 -76 -12 -19 19 -1 39 46 52 l46 13 0 52 c0 59 3
65 31 58 16 -5 19 -14 19 -73z m-423 -104 c7 -22 15 -41 17 -43 1 -2 22 4 46
12 35 12 45 13 52 3 16 -26 7 -37 -47 -52 -30 -9 -61 -19 -68 -22 -11 -4 -21
12 -36 57 -27 80 -27 91 1 87 14 -2 25 -15 35 -42z"/>
<path d="M19845 4556 c-112 -27 -198 -95 -252 -198 -25 -48 -28 -63 -28 -153
0 -89 3 -106 28 -156 34 -70 109 -142 185 -177 76 -35 222 -43 318 -17 114 31
212 120 250 227 16 46 21 153 9 209 -18 81 -90 177 -170 223 -88 52 -228 69
-340 42z"/>
<path d="M8500 2845 l0 -1485 340 0 339 0 3 673 c3 671 3 672 26 735 30 85 60
129 121 185 81 72 142 92 286 92 102 0 129 -4 177 -23 107 -43 187 -135 232
-265 20 -60 21 -80 24 -729 l3 -668 334 0 335 0 0 718 c0 765 -2 811 -51 968
-95 308 -341 520 -652 563 -296 41 -571 -43 -759 -232 l-78 -78 0 515 0 516
-340 0 -340 0 0 -1485z"/>
<path d="M23230 2845 l0 -1485 340 0 340 0 2 472 3 473 343 -473 344 -472 420
0 419 0 -18 23 c-10 12 -218 260 -463 551 -245 291 -445 534 -445 541 0 7 203
257 450 556 248 298 452 546 453 551 2 5 -184 7 -413 6 l-418 -3 -324 -435
c-178 -239 -330 -442 -338 -450 -13 -12 -15 86 -15 808 l0 822 -340 0 -340 0
0 -1485z"/>
<path d="M6425 4195 c-450 -73 -827 -341 -1035 -737 -112 -213 -150 -364 -157
-633 -4 -162 -2 -208 15 -310 26 -152 69 -282 137 -413 202 -388 542 -643 986
-739 120 -26 477 -26 599 0 281 60 508 179 706 369 217 209 354 471 411 783
23 127 23 398 -1 530 -104 579 -521 1012 -1091 1135 -132 29 -436 36 -570 15z
m450 -620 c33 -8 98 -34 145 -57 69 -33 101 -57 170 -127 134 -135 197 -278
221 -508 28 -254 -40 -511 -179 -679 -136 -166 -316 -245 -557 -246 -147 -1
-238 19 -355 74 -115 55 -236 175 -299 296 -139 270 -131 680 20 935 102 172
287 295 491 326 83 13 268 6 343 -14z"/>
<path d="M18098 3868 l-3 -273 -132 -3 -133 -3 0 -279 0 -280 135 0 135 0 0
-483 c0 -592 8 -672 86 -836 47 -100 149 -201 254 -253 151 -74 294 -97 608
-98 l182 0 0 290 0 290 -157 0 c-167 0 -216 11 -254 56 -37 43 -39 78 -39 560
l0 474 225 0 225 0 0 280 0 280 -222 2 -223 3 -3 273 -2 272 -340 0 -340 0 -2
-272z"/>
<path d="M28288 3868 l-3 -273 -132 -3 -133 -3 0 -279 0 -280 135 0 135 0 0
-483 c0 -592 8 -672 86 -836 47 -100 149 -201 254 -253 151 -74 294 -97 608
-98 l182 0 0 290 0 290 -157 0 c-167 0 -216 11 -254 56 -37 43 -39 78 -39 560
l0 474 225 0 225 0 0 280 0 280 -222 2 -223 3 -3 273 -2 272 -340 0 -340 0 -2
-272z"/>
<path d="M570 3745 c-47 -47 -71 -79 -67 -88 6 -17 1944 -2787 1960 -2802 6
-5 4 1 -5 15 -71 118 -1794 2919 -1803 2932 -10 15 -20 9 -85 -57z"/>
<path d="M21632 3620 c-258 -33 -467 -127 -632 -287 -171 -164 -275 -367 -315
-616 -19 -118 -19 -356 0 -474 78 -478 402 -809 875 -894 117 -21 374 -17 490
8 395 85 682 356 790 745 l19 68 -363 0 -363 0 -18 -47 c-12 -31 -41 -70 -79
-109 -79 -79 -133 -99 -266 -99 -88 0 -101 3 -162 33 -122 60 -199 173 -234
342 -25 124 -16 347 19 452 56 172 155 269 305 298 175 35 343 -46 413 -198
l24 -52 362 0 362 0 -19 69 c-112 402 -398 669 -800 745 -100 19 -314 27 -408
16z"/>
<path d="M26580 3623 c-25 -2 -82 -10 -127 -19 -459 -83 -782 -417 -858 -887
-19 -120 -19 -356 0 -477 71 -437 368 -765 785 -869 466 -115 935 25 1198 358
75 94 153 246 177 344 l7 27 -360 0 -360 0 -26 -44 c-76 -131 -244 -198 -416
-166 -191 35 -313 170 -344 382 l-7 48 778 2 778 3 7 90 c9 121 -7 314 -37
431 -28 111 -96 260 -160 349 -217 304 -599 462 -1035 428z m305 -573 c44 -17
77 -40 126 -90 58 -57 70 -75 88 -134 12 -37 21 -83 21 -102 l0 -34 -430 0
-430 0 0 23 c0 38 37 136 71 189 50 77 145 145 236 168 21 5 88 8 148 6 87 -2
123 -8 170 -26z"/>
<path d="M30560 3623 c-369 -36 -614 -173 -730 -408 -45 -92 -61 -167 -61
-285 0 -184 46 -296 167 -409 121 -113 225 -157 605 -256 301 -79 387 -114
422 -173 21 -37 22 -113 2 -152 -54 -105 -271 -144 -422 -75 -79 35 -140 98
-164 167 l-18 53 -336 3 -336 2 7 -37 c36 -214 136 -378 310 -511 109 -83 292
-159 458 -189 114 -21 380 -23 486 -4 352 63 594 253 656 517 24 101 15 266
-19 358 -46 124 -136 229 -262 305 -74 45 -226 100 -415 151 -373 100 -432
121 -475 172 -51 60 -45 152 14 208 47 45 100 61 202 61 105 0 176 -22 236
-75 44 -39 93 -122 93 -158 0 -17 22 -18 316 -18 l316 0 -7 43 c-53 340 -280
592 -610 676 -127 32 -310 47 -435 34z"/>
<path d="M12365 3606 c-163 -32 -305 -107 -415 -218 l-70 -70 0 141 0 141
-340 0 -340 0 0 -1120 0 -1120 340 0 340 0 0 628 c1 480 4 645 14 703 41 227
208 351 456 336 189 -11 314 -105 373 -280 20 -60 21 -83 25 -724 l3 -663 334
0 334 0 3 663 c4 650 4 663 26 727 42 126 115 206 230 252 48 19 76 22 177 22
101 0 129 -3 177 -22 115 -46 188 -126 230 -252 22 -64 22 -77 26 -727 l3
-663 335 0 335 0 -3 768 c-3 753 -4 768 -25 844 -52 184 -106 281 -223 399
-89 90 -161 138 -272 182 -123 50 -190 61 -368 61 -142 1 -176 -2 -243 -22
-186 -54 -375 -180 -477 -321 -25 -34 -47 -61 -50 -61 -3 0 -15 18 -28 40 -35
62 -147 175 -223 226 -77 51 -161 88 -264 116 -94 25 -323 33 -420 14z"/>
<path d="M15200 3597 c0 -3 203 -485 451 -1073 247 -588 451 -1076 451 -1084
1 -8 -110 -262 -246 -565 -137 -302 -251 -556 -253 -563 -4 -10 70 -12 363
-10 l367 3 694 1630 c381 897 696 1638 699 1648 5 16 -17 17 -363 17 l-368 0
-255 -695 c-140 -382 -257 -695 -260 -695 -3 0 -121 312 -262 693 l-256 692
-381 3 c-210 1 -381 1 -381 -1z"/>
<path d="M19620 2475 l0 -1115 340 0 340 0 0 1115 0 1115 -340 0 -340 0 0
-1115z"/>
</g>
</svg>
